<svg xmlns="http://www.w3.org/2000/svg" viewBox="0 0 256 296" width="120" height="120">
  <g>
    <ellipse cx="128" cy="148" rx="120" ry="120" fill="#2e2e2e"/>
    <path d="M128 32c63.6 0 115 51.4 115 115s-51.4 115-115 115S13 210.6 13 147 64.4 32 128 32zm0-16C57.3 16 0 73.3 0 144s57.3 128 128 128 128-57.3 128-128S198.7 16 128 16zm0 48a80 80 0 1 1 0 160 80 80 0 0 1 0-160zm0 16a64 64 0 1 0 0 128 64 64 0 0 0 0-128z" fill="#47848F"/>
    <circle cx="128" cy="148" r="24" fill="#9feaf9"/>
  </g>
</svg> 